<svg id="Layer_1" data-name="Layer 1" xmlns="http://www.w3.org/2000/svg" xmlns:xlink="http://www.w3.org/1999/xlink" viewBox="0 0 805 805">
  <defs>
    <style>
      .cls-1, .cls-8 {
        stroke: #000;
        stroke-miterlimit: 10;
      }

      .cls-2 {
        fill: #e0e0e0;
      }

      .cls-3 {
        fill: url(#linear-gradient);
      }

      .cls-13, .cls-4, .cls-5 {
        fill: #fff;
      }

      .cls-4 {
        fill-rule: evenodd;
      }

      .cls-6, .cls-8 {
        fill: #6666f9;
      }

      .cls-7 {
        fill: #3cd4a1;
      }

      .cls-8 {
        stroke-width: 8px;
      }

      .cls-10, .cls-11, .cls-12, .cls-9 {
        fill: #a4c639;
      }

      .cls-10, .cls-11, .cls-13, .cls-9 {
        stroke: #fff;
      }

      .cls-9 {
        stroke-width: 14.4px;
      }

      .cls-10 {
        stroke-width: 7.2px;
      }

      .cls-11, .cls-13 {
        stroke-width: 7.2px;
      }

      .cls-14 {
        fill: none;
      }
    </style>
    <linearGradient id="linear-gradient" x1="484.52" y1="406.37" x2="484.52" y2="152.79" gradientTransform="translate(-587.16 -167.3) scale(2.04)" gradientUnits="userSpaceOnUse">
      <stop offset="0" stop-color="#20b038"/>
      <stop offset="1" stop-color="#60d66a"/>
    </linearGradient>
  </defs>
  <g id="Layer_7" data-name="Layer 7">
    <circle class="cls-1" cx="402.5" cy="402.5" r="306.9"/>
  </g>
  <g id="Layer_2" data-name="Layer 2">
    <path class="cls-2" d="M592.4,213.8A266.93,266.93,0,0,0,402.3,135c-148.1,0-268.7,120.5-268.7,268.6a267.28,267.28,0,0,0,35.9,134.3L131.4,677.1l142.5-37.3a267.85,267.85,0,0,0,128.4,32.7h.1C550.5,672.5,671,552,671.1,403.8A266.77,266.77,0,0,0,592.4,213.8ZM402.3,627.1h0A223,223,0,0,1,288.5,596l-8.2-4.8-84.5,22.2L218.4,531l-5.3-8.5A222.07,222.07,0,0,1,179,403.7c0-123.1,100.2-223.2,223.4-223.2S625.7,280.6,625.7,403.9C625.6,526.9,525.4,627.1,402.3,627.1Z"/>
    <path class="cls-3" d="M143.7,661.7l36.4-132.8a255.35,255.35,0,0,1-34.2-128.2C146,259.4,261,144.4,402.4,144.4c141.7,0,256.5,114.9,256.4,256.5h0c-.1,141.3-115.1,256.4-256.4,256.4h-.1a256.21,256.21,0,0,1-122.6-31.2Z"/>
    <path class="cls-4" d="M335.9,289.6c-5-11-10.2-11.3-14.9-11.5-3.9-.2-8.3-.1-12.7-.1a24.55,24.55,0,0,0-17.7,8.3c-6.1,6.7-23.2,22.7-23.2,55.4s23.8,64.2,27.1,68.6,45.9,73.6,113.4,100.2c56.1,22.1,67.5,17.7,79.6,16.6s39.3-16,44.8-31.5,5.5-28.8,3.9-31.5-6.1-4.4-12.7-7.8-39.3-19.4-45.4-21.6-10.5-3.3-14.9,3.3-17.1,21.6-21,26-7.8,5-14.4,1.7-28-10.3-53.4-33c-19.7-17.6-33-39.3-36.9-46s-.4-10.2,2.9-13.5c3-3,6.6-7.8,10-11.6s4.4-6.6,6.6-11.1,1.1-8.3-.6-11.6c-1.6-3.5-14.5-36.2-20.5-49.3Z"/>
    <path class="cls-5" d="M590.2,212.9A264.41,264.41,0,0,0,402.3,135c-146.4,0-265.6,119.1-265.7,265.5a264.74,264.74,0,0,0,35.5,132.8L134.4,671l140.8-36.9a265.36,265.36,0,0,0,126.9,32.3h.1c146.4,0,265.6-119.2,265.6-265.5A263.29,263.29,0,0,0,590.2,212.9ZM402.3,621.5h0a220.54,220.54,0,0,1-112.5-30.8l-8.1-4.8-83.6,21.9,22.3-81.5-5.3-8.3a220.8,220.8,0,0,1-33.8-117.4c0-121.7,99.1-220.7,220.9-220.7,122,.1,220.8,99,220.7,220.9h0C623.1,522.5,524,621.5,402.3,621.5Z"/>
  </g>
  <g id="Layer_1-2" data-name="Layer 1-2">
    <path class="cls-6" d="M707.7,402.5c.1,168.9-136.7,305.9-305.6,306h-.4a311.16,311.16,0,0,1-67.3-7.4c6.1-7.1,12-14.5,17.7-21.9a284.93,284.93,0,0,0,49.6,4.4c155,0,281-126,281-281s-126-281-281-281c-6.9,0-13.8.2-20.6.7-4.9-8-10-15.8-15.3-23.6a310.26,310.26,0,0,1,36-2c168.9-.1,305.9,136.7,306,305.6v.4Z"/>
    <path class="cls-7" d="M352.2,679.1q-8.55,11.25-17.7,21.9C169.5,663.8,66,499.9,103.3,334.9A305.86,305.86,0,0,1,365.8,98.6c5.4,7.7,10.4,15.6,15.3,23.6C235.7,132.8,120.7,254.5,120.7,402.5,120.7,540.5,220.7,655.7,352.2,679.1Z"/>
  </g>
  <g id="Layer_11" data-name="Layer 11">
    <path class="cls-8" d="M710.53,230.93a115.06,115.06,0,1,1-115-115A115,115,0,0,1,710.53,230.93Z"/>
    <path class="cls-7" d="M601.77,241.93a185.16,185.16,0,0,1-30.11,101.5,115,115,0,0,1-13.57-221.25A185.23,185.23,0,0,1,601.77,241.93Z"/>
    <g>
      <g id="b">
        <ellipse class="cls-9" cx="595.54" cy="199.13" rx="47.5" ry="43.85"/>
        <rect class="cls-9" x="548.04" y="188.17" width="95" height="95" rx="11.48"/>
      </g>
      <g id="a">
        <path class="cls-10" d="M564.42,143.65h0a3.39,3.39,0,0,0-1.33,4.61l18.48,33.33a3.39,3.39,0,0,0,4.61,1.32h0a3.38,3.38,0,0,0,1.32-4.61L569,145A3.39,3.39,0,0,0,564.42,143.65Z"/>
        <path id="c" class="cls-11" d="M657.66,199.13h0a12.53,12.53,0,0,0-12.53,12.53V256a12.52,12.52,0,0,0,12.53,12.52h0A12.52,12.52,0,0,0,670.19,256V211.66A12.53,12.53,0,0,0,657.66,199.13Z"/>
        <path id="c-2" data-name="c" class="cls-11" d="M613.29,249.76h0a12.53,12.53,0,0,0-12.53,12.53v44.37a12.53,12.53,0,0,0,12.53,12.53h0a12.53,12.53,0,0,0,12.53-12.53V262.29A12.53,12.53,0,0,0,613.29,249.76Z"/>
      </g>
      <g id="a-2" data-name="a">
        <path class="cls-10" d="M626.66,143.65h0a3.4,3.4,0,0,1,1.33,4.61l-18.48,33.33a3.39,3.39,0,0,1-4.61,1.32h0a3.38,3.38,0,0,1-1.32-4.61L622.05,145A3.39,3.39,0,0,1,626.66,143.65Z"/>
        <path id="c-3" data-name="c" class="cls-11" d="M533.42,199.13h0A12.53,12.53,0,0,1,546,211.66V256a12.52,12.52,0,0,1-12.53,12.52h0A12.52,12.52,0,0,1,520.89,256V211.66A12.53,12.53,0,0,1,533.42,199.13Z"/>
        <path id="c-4" data-name="c" class="cls-11" d="M577.79,249.76h0a12.53,12.53,0,0,1,12.53,12.53v44.37a12.53,12.53,0,0,1-12.53,12.53h0a12.53,12.53,0,0,1-12.53-12.53V262.29A12.53,12.53,0,0,1,577.79,249.76Z"/>
      </g>
      <g id="b-2" data-name="b">
        <ellipse class="cls-12" cx="595.54" cy="199.13" rx="47.5" ry="43.85"/>
        <rect class="cls-12" x="548.04" y="188.17" width="95" height="95" rx="11.48"/>
      </g>
    </g>
    <g>
      <path class="cls-13" d="M546,201h99.18"/>
      <circle class="cls-13" cx="573.62" cy="177.73" r="2.09"/>
      <circle class="cls-13" cx="617.46" cy="177.73" r="2.09"/>
    </g>
  </g>
  <rect class="cls-14" width="805" height="805"/>
</svg>
