<?xml version="1.0" encoding="utf-8"?>
<!-- Generator: Adobe Illustrator 24.2.0, SVG Export Plug-In . SVG Version: 6.00 Build 0)  -->
<svg version="1.1" id="Layer_1" xmlns="http://www.w3.org/2000/svg" xmlns:xlink="http://www.w3.org/1999/xlink" x="0px" y="0px"
	 viewBox="0 0 805 805" style="enable-background:new 0 0 805 805;" xml:space="preserve">
<style type="text/css">
	.st0{stroke:#000000;stroke-miterlimit:10;}
	.st1{fill:#E0E0E0;}
	.st2{fill:url(#SVGID_1_);}
	.st3{fill-rule:evenodd;clip-rule:evenodd;fill:#FFFFFF;}
	.st4{fill:#FFFFFF;}
	.st5{fill:#6666F9;}
	.st6{fill:#3CD4A1;}
	.st7{fill:#A4C639;stroke:#FFFFFF;stroke-width:14.4;}
	.st8{fill:#A4C639;stroke:#FFFFFF;stroke-width:7.2;}
	.st9{fill:#A4C639;}
	.st10{fill:#FFFFFF;stroke:#FFFFFF;stroke-width:7.2;}
	.st11{fill:none;}
</style>
<g id="Layer_7">
	<circle class="st0" cx="402.5" cy="402.5" r="306.9"/>
</g>
<g id="Layer_2_1_">
	<path class="st1" d="M592.4,213.8c-50.3-50.6-118.7-79-190.1-78.8c-148.1,0-268.7,120.5-268.7,268.6
		c-0.1,47.1,12.3,93.5,35.9,134.3l-38.1,139.2l142.5-37.3c39.4,21.5,83.5,32.7,128.4,32.7h0.1c148.1,0,268.6-120.5,268.7-268.7
		C671.3,332.5,643,264.1,592.4,213.8z M402.3,627.1L402.3,627.1c-40.1,0-79.4-10.7-113.8-31.1l-8.2-4.8l-84.5,22.2l22.6-82.4
		l-5.3-8.5c-22.4-35.6-34.2-76.8-34.1-118.8c0-123.1,100.2-223.2,223.4-223.2s223.3,100.1,223.3,223.4
		C625.6,526.9,525.4,627.1,402.3,627.1z"/>
	
		<linearGradient id="SVGID_1_" gradientUnits="userSpaceOnUse" x1="435.0459" y1="389.2076" x2="435.0459" y2="642.8106" gradientTransform="matrix(2.04 0 0 -2.04 -486.2836 1455.6636)">
		<stop  offset="0" style="stop-color:#20B038"/>
		<stop  offset="1" style="stop-color:#60D66A"/>
	</linearGradient>
	<path class="st2" d="M143.7,661.7l36.4-132.8c-22.5-39-34.3-83.2-34.2-128.2c0.1-141.3,115.1-256.3,256.5-256.3
		c141.7,0,256.5,114.9,256.4,256.5l0,0c-0.1,141.3-115.1,256.4-256.4,256.4h-0.1c-42.8,0-85-10.7-122.6-31.2L143.7,661.7z"/>
	<path class="st3" d="M335.9,289.6c-5-11-10.2-11.3-14.9-11.5c-3.9-0.2-8.3-0.1-12.7-0.1c-6.8,0.2-13.2,3.2-17.7,8.3
		c-6.1,6.7-23.2,22.7-23.2,55.4s23.8,64.2,27.1,68.6c3.3,4.4,45.9,73.6,113.4,100.2c56.1,22.1,67.5,17.7,79.6,16.6
		c12.2-1.1,39.3-16,44.8-31.5s5.5-28.8,3.9-31.5c-1.7-2.8-6.1-4.4-12.7-7.8c-6.6-3.3-39.3-19.4-45.4-21.6
		c-6.1-2.2-10.5-3.3-14.9,3.3c-4.4,6.7-17.1,21.6-21,26c-3.9,4.4-7.8,5-14.4,1.7s-28-10.3-53.4-33c-19.7-17.6-33-39.3-36.9-46
		s-0.4-10.2,2.9-13.5c3-3,6.6-7.8,10-11.6s4.4-6.6,6.6-11.1c2.2-4.4,1.1-8.3-0.6-11.6C354.8,335.4,341.9,302.7,335.9,289.6
		L335.9,289.6z"/>
	<path class="st4" d="M590.2,212.9c-49.7-50-117.4-78-187.9-77.9c-146.4,0-265.6,119.1-265.7,265.5c-0.1,46.6,12.2,92.4,35.5,132.8
		L134.4,671l140.8-36.9c38.9,21.2,82.6,32.3,126.9,32.3h0.1c146.4,0,265.6-119.2,265.6-265.5C668.2,330.4,640.2,262.7,590.2,212.9z
		 M402.3,621.5L402.3,621.5c-39.6,0-78.4-10.6-112.5-30.8l-8.1-4.8l-83.6,21.9l22.3-81.5l-5.3-8.3c-22.1-35.2-33.8-75.9-33.8-117.4
		c0-121.7,99.1-220.7,220.9-220.7c122,0.1,220.8,99,220.7,220.9l0,0C623.1,522.5,524,621.5,402.3,621.5z"/>
</g>
<g id="Layer_1-2">
	<path class="st5" d="M707.7,402.5c0.1,168.9-136.7,305.9-305.6,306h-0.4c-22.6,0-45.2-2.5-67.3-7.4c6.1-7.1,12-14.5,17.7-21.9
		c16.4,2.9,33,4.4,49.6,4.4c155,0,281-126,281-281s-126-281-281-281c-6.9,0-13.8,0.2-20.6,0.7c-4.9-8-10-15.8-15.3-23.6
		c12-1.4,24-2,36-2c168.9-0.1,305.9,136.7,306,305.6c0,0.1,0,0.3,0,0.4L707.7,402.5z"/>
	<path class="st6" d="M352.2,679.1c-5.7,7.5-11.6,14.8-17.7,21.9C169.5,663.8,66,499.9,103.3,334.9
		C131.9,208.5,237,113.8,365.8,98.6c5.4,7.7,10.4,15.6,15.3,23.6c-145.4,10.6-260.4,132.3-260.4,280.3
		C120.7,540.5,220.7,655.7,352.2,679.1z"/>
</g>
<g id="Layer_11">
	<circle cx="594.8" cy="230.8" r="115"/>
	<g>
		<g id="b">
			<ellipse class="st7" cx="594.8" cy="199" rx="47.5" ry="43.9"/>
			<path class="st7" d="M558.8,188.1h72c6.3,0,11.5,5.1,11.5,11.5v72c0,6.3-5.1,11.5-11.5,11.5h-72c-6.3,0-11.5-5.1-11.5-11.5v-72
				C547.3,193.2,552.4,188.1,558.8,188.1z"/>
		</g>
		<g id="a">
			<path class="st8" d="M563.6,143.6L563.6,143.6c-1.6,0.9-2.2,3-1.3,4.6l0,0l18.5,33.3c0.9,1.6,3,2.2,4.6,1.3l0,0
				c1.6-0.9,2.2-3,1.3-4.6l0,0l-18.5-33.3C567.3,143.2,565.3,142.6,563.6,143.6C563.7,143.5,563.7,143.5,563.6,143.6L563.6,143.6z"
				/>
			<path id="c" class="st8" d="M656.9,199.1L656.9,199.1c-6.9,0-12.5,5.6-12.5,12.5v0l0,0V256c0,6.9,5.6,12.5,12.5,12.5c0,0,0,0,0,0
				l0,0c6.9,0,12.5-5.6,12.5-12.5c0,0,0,0,0,0l0,0v-44.4C669.5,204.7,663.8,199.1,656.9,199.1C656.9,199.1,656.9,199.1,656.9,199.1z
				"/>
			<path id="c-2" class="st8" d="M612.5,249.7L612.5,249.7c-6.9,0-12.5,5.6-12.5,12.5v44.4c0,6.9,5.6,12.5,12.5,12.5l0,0
				c6.9,0,12.5-5.6,12.5-12.5c0,0,0,0,0,0v-44.3C625.1,255.3,619.5,249.7,612.5,249.7L612.5,249.7L612.5,249.7z"/>
		</g>
		<g id="a-2">
			<path class="st8" d="M625.9,143.6L625.9,143.6c1.6,0.9,2.2,3,1.3,4.6l0,0l-18.5,33.3c-0.9,1.6-3,2.2-4.6,1.3l0,0
				c-1.6-0.9-2.2-3-1.3-4.6l0,0l18.5-33.3C622.2,143.2,624.3,142.6,625.9,143.6L625.9,143.6z"/>
			<path id="c-3" class="st8" d="M532.7,199.1L532.7,199.1c6.9,0,12.5,5.6,12.5,12.5c0,0,0,0,0,0l0,0V256c0,6.9-5.6,12.5-12.5,12.5
				c0,0,0,0,0,0l0,0c-6.9,0-12.5-5.6-12.5-12.5c0,0,0,0,0,0l0,0v-44.4C520.1,204.7,525.8,199.1,532.7,199.1z"/>
			<path id="c-4" class="st8" d="M577,249.7L577,249.7c6.9,0,12.5,5.5,12.6,12.5c0,0,0,0,0,0v44.4c0,6.9-5.6,12.5-12.5,12.5
				c0,0,0,0,0,0l0,0c-6.9,0-12.5-5.6-12.5-12.5v-44.3C564.5,255.3,570.1,249.7,577,249.7z"/>
		</g>
		<g id="b-2">
			<ellipse class="st9" cx="594.8" cy="199" rx="47.5" ry="43.9"/>
			<path class="st9" d="M558.8,188.1h72c6.3,0,11.5,5.1,11.5,11.5v72c0,6.3-5.1,11.5-11.5,11.5h-72c-6.3,0-11.5-5.1-11.5-11.5v-72
				C547.3,193.2,552.4,188.1,558.8,188.1z"/>
		</g>
	</g>
	<g>
		<path class="st10" d="M545.2,200.9h99.2"/>
		<circle class="st10" cx="572.9" cy="177.6" r="2.1"/>
		<circle class="st10" cx="616.7" cy="177.6" r="2.1"/>
	</g>
</g>
<rect class="st11" width="805" height="805"/>
</svg>
